<?xml version="1.0" encoding="utf-8"?>
<!-- Generator: Adobe Illustrator 16.0.0, SVG Export Plug-In . SVG Version: 6.00 Build 0)  -->
<!DOCTYPE svg PUBLIC "-//W3C//DTD SVG 1.1//EN" "http://www.w3.org/Graphics/SVG/1.1/DTD/svg11.dtd">
<svg version="1.1" id="Layer_1" xmlns="http://www.w3.org/2000/svg" xmlns:xlink="http://www.w3.org/1999/xlink" x="0px" y="0px"
	 width="250px" height="250px" viewBox="0 0 250 250" enable-background="new 0 0 250 250" xml:space="preserve">
<path fill="#FFFFFF" d="M230.434,120.557c0,57.974-46.998,104.971-104.972,104.971c-57.974,0-104.972-46.997-104.972-104.971
	c0-57.975,46.998-104.971,104.972-104.971C183.436,15.585,230.434,62.582,230.434,120.557"/>
<path fill="#FF9800" d="M108.332,149.991c-0.887-4.993-3.698-18.962-8.389-25.544c-1.641-2.304-3.342-4.574-5.056-6.75
	c-6.136-7.783-9.038-17.539-8.171-27.468c1.651-18.917,17.196-34.107,36.158-35.334c0.861-0.056,1.732-0.084,2.59-0.084
	c21.447,0,38.896,17.451,38.896,38.9c0,8.789-2.879,17.085-8.326,23.992c-1.796,2.277-3.71,4.87-5.688,7.706
	c-4.485,6.428-7.136,19.725-7.988,24.582H108.332z"/>
<path fill="#FF9800" d="M125.464,56.931c20.278,0,36.776,16.5,36.776,36.78c0,8.307-2.721,16.15-7.871,22.681
	c-1.824,2.314-3.763,4.94-5.763,7.805c-4.291,6.15-6.9,17.705-8.022,23.675h-30.481c-1.171-6.167-3.932-18.34-8.434-24.655
	c-1.662-2.332-3.384-4.63-5.119-6.83c-5.8-7.36-8.543-16.583-7.723-25.972c1.56-17.884,16.255-32.244,34.184-33.404
	C123.826,56.958,124.651,56.931,125.464,56.931 M125.464,52.693c-0.902,0-1.812,0.029-2.728,0.088
	c-20.013,1.294-36.388,17.286-38.132,37.265c-0.957,10.971,2.432,21.115,8.618,28.963c1.702,2.16,3.372,4.39,4.995,6.667
	c5.421,7.605,8.322,26.434,8.322,26.434h37.616c0,0,2.72-18.024,7.928-25.488c1.881-2.695,3.786-5.288,5.614-7.607
	c5.495-6.967,8.782-15.741,8.782-25.304C166.479,71.058,148.115,52.693,125.464,52.693"/>
<path fill="#FFFFFF" d="M113.954,112.46c3.771,1.198,7.658,1.805,11.587,1.805c3.902,0,7.765-0.599,11.512-1.781l-9.009,35.916
	h-5.215L113.954,112.46 M143.124,105.7l-5.372,2.053c-3.963,1.516-8.089,2.274-12.211,2.274c-4.098,0-8.193-0.748-12.135-2.245
	l-5.486-2.082l11.59,46.937h11.841L143.124,105.7z"/>
<path fill="#FFFFFF" d="M125.529,86.143c4.288,0,7.777,3.489,7.777,7.777c0,4.288-3.489,7.776-7.777,7.776
	c-4.288,0-7.776-3.489-7.776-7.776C117.752,89.631,121.241,86.143,125.529,86.143 M125.529,81.904
	c-6.635,0-12.015,5.379-12.015,12.015c0,6.635,5.38,12.015,12.015,12.015s12.015-5.379,12.015-12.015
	C137.544,87.283,132.164,81.904,125.529,81.904"/>
<path fill="none" stroke="#FFFFFF" stroke-width="5" stroke-miterlimit="10" d="M105.13,88.702
	c3.201-8.131,11.124-13.885,20.391-13.885c9.227,0,17.122,5.705,20.348,13.78"/>
<polygon fill="#FFFFFF" points="125.318,138.265 121.446,131.156 123.685,116.974 127.062,116.974 129.599,131.156 "/>
<path fill="#FF9800" d="M125.904,156.139h-0.909l-17.84,0.129l1.086,3.957c1.67,6.018,1.915,12.344,0.747,18.475l-0.195,0.989
	l16.202,6.974l0.455,0.194l0.454-0.194l16.203-6.974l-0.195-0.989c-1.167-6.131-0.924-12.457,0.746-18.475l1.087-3.957
	L125.904,156.139z"/>
<line fill="none" stroke="#FFFFFF" stroke-width="5" stroke-miterlimit="10" x1="125.449" y1="155.235" x2="125.449" y2="187.662"/>
<path fill="#FFFFFF" d="M129.793,93.919c0,2.355-1.909,4.265-4.265,4.265c-2.355,0-4.263-1.909-4.263-4.265
	c0-2.355,1.908-4.264,4.263-4.264C127.884,89.655,129.793,91.564,129.793,93.919"/>
<g>
</g>
<g>
</g>
<g>
</g>
<g>
</g>
<g>
</g>
<g>
</g>
<g>
</g>
<g>
</g>
<g>
</g>
<g>
</g>
<g>
</g>
<g>
</g>
<g>
</g>
<g>
</g>
<g>
</g>
</svg>
