<?xml version="1.0" encoding="utf-8"?>
<!-- Generator: Adobe Illustrator 16.0.0, SVG Export Plug-In . SVG Version: 6.00 Build 0)  -->
<!DOCTYPE svg PUBLIC "-//W3C//DTD SVG 1.1 Tiny//EN" "http://www.w3.org/Graphics/SVG/1.1/DTD/svg11-tiny.dtd">
<svg version="1.1" baseProfile="tiny" id="Layer_1" xmlns="http://www.w3.org/2000/svg" xmlns:xlink="http://www.w3.org/1999/xlink"
	 x="0px" y="0px" width="158.971px" height="36.686px" viewBox="0 0 158.971 36.686" xml:space="preserve">
<g>
	<path fill="none" d="M70.981,13.613c-4.017,0-5.777,3.701-6.093,6.455h11.6C76.533,17.54,75.449,13.613,70.981,13.613z"/>
	<path fill="none" d="M133.591,13.613c-4.017,0-5.777,3.701-6.093,6.455h11.6C139.143,17.54,138.06,13.613,133.591,13.613z"/>
	<path fill="#FFFFFF" d="M34.867,33.111V20.067c0-7.493-4.694-9.298-7.718-9.298c-3.611,0-6.138,2.031-7.222,4.107h-0.09
		l-0.226-3.611H16.09c0.135,1.806,0.181,3.656,0.181,5.913v15.933h3.972V19.977c0-0.677,0.09-1.354,0.271-1.85
		c0.677-2.212,2.708-4.063,5.326-4.063c3.746,0,5.055,2.934,5.055,6.455v12.593H34.867z"/>
	<path fill="#FFFFFF" d="M59.153,11.266H55l-4.243,12.277c-0.722,1.985-1.354,3.791-1.851,5.597h-0.136
		c-0.451-1.806-1.038-3.611-1.76-5.597l-4.288-12.277h-4.243l8.305,21.846h3.792L59.153,11.266z"/>
	<path fill="#FFFFFF" d="M80.324,21.061c0-4.018-1.896-10.292-9.027-10.292c-6.364,0-10.246,5.191-10.246,11.781
		s4.017,11.013,10.742,11.013c3.475,0,5.868-0.722,7.267-1.354l-0.677-2.844c-1.49,0.632-3.205,1.128-6.048,1.128
		c-3.972,0-7.402-2.211-7.493-7.582h15.346C80.233,22.505,80.324,21.873,80.324,21.061z M64.888,20.067
		c0.316-2.753,2.076-6.455,6.093-6.455c4.468,0,5.552,3.927,5.506,6.455H64.888z"/>
	<path fill="#FFFFFF" d="M103.842,33.111V20.067c0-7.493-4.694-9.298-7.718-9.298c-3.611,0-6.139,2.031-7.222,4.107h-0.091
		l-0.226-3.611h-3.521c0.136,1.806,0.181,3.656,0.181,5.913v15.933h3.972V19.977c0-0.677,0.091-1.354,0.271-1.85
		c0.677-2.212,2.708-4.063,5.325-4.063c3.746,0,5.056,2.934,5.056,6.455v12.593H103.842z"/>
	<path fill="#FFFFFF" d="M111.202,6.03v5.235h-3.385v3.024h3.385v11.916c0,2.572,0.406,4.513,1.535,5.687
		c0.947,1.083,2.438,1.67,4.288,1.67c1.534,0,2.753-0.226,3.521-0.541l-0.181-2.979c-0.497,0.136-1.264,0.271-2.302,0.271
		c-2.212,0-2.979-1.534-2.979-4.242V14.29h5.688v-3.024h-5.688V4.992L111.202,6.03z"/>
	<path fill="#FFFFFF" d="M142.935,21.061c0-4.018-1.896-10.292-9.027-10.292c-6.364,0-10.246,5.191-10.246,11.781
		s4.018,11.013,10.742,11.013c3.476,0,5.868-0.722,7.268-1.354l-0.678-2.844c-1.489,0.632-3.204,1.128-6.048,1.128
		c-3.972,0-7.402-2.211-7.492-7.582h15.346C142.844,22.505,142.935,21.873,142.935,21.061z M127.498,20.067
		c0.315-2.753,2.076-6.455,6.093-6.455c4.469,0,5.552,3.927,5.507,6.455H127.498z"/>
	<circle fill="#FFFFFF" cx="6.286" cy="5.903" r="3.872"/>
	<circle fill="#FFFFFF" cx="153.866" cy="30.193" r="3.872"/>
	<polygon fill="#FFFFFF" points="6.076,34.065 10.5,26.716 7.878,12.054 4.387,12.054 2.072,26.716 	"/>
</g>
</svg>
